staticP12_grf.mot
version=1
nRows=25
nColumns=19
inDegrees=yes
endheader
time	1_ground_force_vx	1_ground_force_vy	1_ground_force_vz	1_ground_force_px	1_ground_force_py	1_ground_force_pz	1_ground_torque_x	1_ground_torque_y	1_ground_torque_z	2_ground_force_vx	2_ground_force_vy	2_ground_force_vz	2_ground_force_px	2_ground_force_py	2_ground_force_pz	2_ground_torque_x	2_ground_torque_y	2_ground_torque_z
            0.753000	            0.028743	            0.287750	            0.002345	            0.300343	            0.002779	           -0.250042	           -0.134120	            0.001851	           -0.012730	            0.033789	            0.470318	           -0.025145	            0.905879	            0.000867	           -0.251058	           -0.142429	            0.007540	            0.027051
            0.754000	            0.003809	           -0.191465	           -0.014351	            0.300343	            0.002779	           -0.250042	           -0.033417	           -0.004149	           -0.012343	            0.023122	           -0.408339	            0.010078	            0.905879	            0.000867	           -0.251058	           -0.092424	            0.014464	           -0.035101
            0.755000	            0.019715	           -0.031045	            0.001431	            0.300343	            0.002779	           -0.250042	            0.033219	            0.006220	           -0.095416	            0.008669	           -0.168075	            0.026199	            0.905879	            0.000867	           -0.251058	            0.024962	           -0.007965	            0.068960
            0.756000	            0.033403	           -0.430676	            0.007910	            0.300343	            0.002779	           -0.250042	           -0.016744	            0.000918	            0.008465	            0.000975	           -0.168505	            0.003281	            0.905879	            0.000867	           -0.251058	           -0.041992	            0.000631	            0.068796
            0.757000	            0.036401	            0.286924	           -0.005331	            0.300343	            0.002779	           -0.250042	           -0.066986	           -0.002151	            0.028812	            0.023136	           -0.407926	           -0.005407	            0.905879	            0.000867	           -0.251058	           -0.025329	           -0.003593	            0.006379
            0.758000	            0.026046	           -0.350397	           -0.014870	            0.300343	            0.002779	           -0.250042	           -0.067051	           -0.007044	           -0.053794	            0.024527	           -0.007887	            0.003846	            0.905879	            0.000867	           -0.251058	           -0.008560	            0.002584	           -0.055912
            0.759000	            0.021025	            0.286508	           -0.005338	            0.300343	            0.002779	           -0.250042	           -0.033399	            0.000043	            0.070315	            0.001478	           -0.007798	           -0.026876	            0.905879	            0.000867	           -0.251058	            0.025163	            0.003745	            0.027107
            0.760000	            0.034373	           -0.189633	            0.016212	            0.300343	            0.002779	           -0.250042	           -0.100881	           -0.004931	           -0.178358	            0.008618	           -0.167882	            0.003218	            0.905879	            0.000867	           -0.251058	           -0.008476	            0.004875	           -0.014431
            0.761000	            0.003440	           -0.271500	           -0.014582	            0.300343	            0.002779	           -0.250042	            0.016862	           -0.001204	            0.008462	            0.017650	            0.231840	           -0.010632	            0.905879	            0.000867	           -0.251058	            0.008389	            0.007112	            0.006391
            0.762000	           -0.003575	           -0.112048	           -0.021761	            0.300343	            0.002779	           -0.250042	            0.117330	            0.002217	           -0.074432	            0.009151	           -0.007832	           -0.019281	            0.905879	            0.000867	           -0.251058	           -0.042194	            0.000059	           -0.097442
            0.763000	            0.035614	            0.129213	            0.009546	            0.300343	            0.002779	           -0.250042	           -0.134274	            0.015447	           -0.137025	            0.002302	            0.231667	            0.004763	            0.905879	            0.000867	           -0.251058	           -0.058906	            0.017330	           -0.076470
            0.764000	            0.020735	            0.207787	           -0.005566	            0.300343	            0.002779	           -0.250042	           -0.016889	           -0.002820	           -0.074782	            0.001237	           -0.089106	            0.011126	            0.905879	            0.000867	           -0.251058	           -0.092325	           -0.002819	            0.089642
            0.765000	            0.027028	           -0.111986	           -0.021788	            0.300343	            0.002779	           -0.250042	            0.083766	            0.002221	           -0.033050	           -0.020660	            0.232892	            0.012513	            0.905879	            0.000867	           -0.251058	            0.109139	            0.010556	           -0.035433
            0.766000	            0.002769	           -0.431114	            0.015543	            0.300343	            0.002779	           -0.250042	           -0.016621	           -0.005924	            0.049956	           -0.006687	           -0.168131	            0.010898	            0.905879	            0.000867	           -0.251058	           -0.042194	           -0.003439	           -0.014206
            0.767000	            0.018995	           -0.192598	           -0.014427	            0.300343	            0.002779	           -0.250042	            0.167703	           -0.007175	           -0.053592	           -0.020666	            0.231051	            0.012342	            0.905879	            0.000867	           -0.251058	           -0.024970	           -0.001591	            0.130955
            0.768000	           -0.010946	           -0.031394	           -0.021521	            0.300343	            0.002779	           -0.250042	            0.033376	            0.007330	           -0.053902	            0.001498	           -0.008021	           -0.011611	            0.905879	            0.000867	           -0.251058	           -0.042035	           -0.003696	           -0.056104
            0.769000	            0.005115	            0.127352	            0.009568	            0.300343	            0.002779	           -0.250042	            0.100413	            0.004490	           -0.012482	           -0.004267	            0.551319	           -0.001704	            0.905879	            0.000867	           -0.251058	            0.042349	            0.016595	            0.130836
            0.770000	           -0.019526	           -0.270592	           -0.014578	            0.300343	            0.002779	           -0.250042	            0.083546	           -0.003604	           -0.074523	            0.039535	           -0.087986	           -0.027388	            0.905879	            0.000867	           -0.251058	           -0.025397	           -0.006239	           -0.035081
            0.771000	            0.019388	           -0.112013	           -0.029467	            0.300343	            0.002779	           -0.250042	           -0.016675	           -0.005178	            0.049779	            0.008903	           -0.087863	            0.019000	            0.905879	            0.000867	           -0.251058	           -0.025334	            0.016394	           -0.076632
            0.772000	           -0.019909	           -0.350580	           -0.030121	            0.300343	            0.002779	           -0.250042	           -0.000017	           -0.000229	           -0.012292	           -0.022315	           -0.246764	            0.002966	            0.905879	            0.000867	           -0.251058	            0.142614	            0.000908	            0.047763
            0.773000	            0.027034	           -0.111638	            0.024111	            0.300343	            0.002779	           -0.250042	            0.050169	           -0.002253	           -0.074559	            0.009199	           -0.008599	            0.011578	            0.905879	            0.000867	           -0.251058	           -0.075838	            0.004669	           -0.013898
            0.774000	            0.005071	            0.127231	            0.001902	            0.300343	            0.002779	           -0.250042	           -0.033417	            0.006025	            0.070386	            0.011930	            0.791410	           -0.000944	            0.905879	            0.000867	           -0.251058	           -0.042027	            0.000072	           -0.097475
            0.775000	           -0.018882	           -0.111505	            0.008900	            0.300343	            0.002779	           -0.250042	            0.016668	            0.009489	            0.049736	           -0.005637	            0.151375	           -0.003240	            0.905879	            0.000867	           -0.251058	           -0.075564	            0.010321	           -0.014280
            0.776000	            0.011046	           -0.270593	           -0.006940	            0.300343	            0.002779	           -0.250042	           -0.050281	            0.002142	           -0.074521	           -0.020110	            0.391724	           -0.002439	            0.905879	            0.000867	           -0.251058	           -0.025033	           -0.007429	           -0.035586
            0.777000	           -0.023580	            0.606380	           -0.034998	            0.300343	            0.002779	           -0.250042	            0.033376	            0.000139	           -0.054210	           -0.013049	            0.232144	           -0.041289	            0.905879	            0.000867	           -0.251058	            0.042095	            0.007596	            0.047772
